<?xml version="1.0" standalone="no"?>
<!DOCTYPE svg PUBLIC "-//W3C//DTD SVG 20010904//EN"
 "http://www.w3.org/TR/2001/REC-SVG-20010904/DTD/svg10.dtd">
<svg version="1.0" xmlns="http://www.w3.org/2000/svg"
 width="864.000000pt" height="864.000000pt" viewBox="0 0 864.000000 864.000000"
 preserveAspectRatio="xMidYMid meet">
<metadata>
Created by potrace 1.14, written by Peter Selinger 2001-2017
</metadata>
<g transform="translate(0.000000,864.000000) scale(0.100000,-0.100000)"
fill="#000000" stroke="none">
<path d="M0 4335 l0 -3825 2868 0 2869 0 1 442 c0 244 1 459 1 479 l1 35 943
1 c920 0 1030 2 1112 23 22 6 50 13 63 16 82 17 285 115 322 154 3 3 23 18 45
35 46 34 119 106 155 154 14 18 30 38 36 45 7 7 27 39 45 72 18 32 37 61 41
62 4 2 8 11 8 21 0 9 4 21 9 26 5 6 16 35 26 65 9 30 19 62 22 70 6 15 9 27
17 70 3 14 8 36 11 50 11 40 12 571 2 611 -12 50 -62 108 -111 130 -38 17 -75
19 -494 19 -359 0 -459 -3 -485 -14 -24 -10 -346 -241 -422 -304 -5 -4 -71
-52 -145 -107 -74 -54 -139 -103 -145 -109 -20 -22 -47 -16 -94 21 -27 21 -61
47 -77 58 -15 11 -42 31 -60 45 -18 14 -55 41 -81 60 -26 19 -50 37 -53 40 -3
3 -22 16 -42 30 -21 14 -38 28 -38 33 0 4 -4 7 -10 7 -9 0 -35 19 -65 48 -8 6
-18 12 -23 12 -6 0 -12 3 -14 8 -5 12 -127 102 -138 102 -6 0 -10 4 -10 8 0 5
-19 19 -42 33 -38 21 -59 25 -177 29 l-134 5 0 198 c0 108 3 200 7 205 4 4
611 7 1349 7 1060 1 1350 4 1379 14 52 17 114 90 126 148 16 72 3 126 -44 181
-48 58 -87 70 -242 75 -28 1 -52 -1 -52 -4 0 -3 -12 -4 -27 -2 -41 6 -152 5
-162 -2 -5 -3 -12 -1 -15 4 -4 6 -18 6 -35 1 -16 -4 -32 -6 -35 -3 -5 5 -209
7 -231 3 -5 -1 -12 -2 -15 -1 -17 6 -130 5 -130 -1 0 -4 -6 -5 -14 -2 -21 8
-146 10 -146 2 0 -4 -12 -3 -27 1 -16 4 -40 4 -55 0 -15 -4 -29 -4 -32 -1 -5
4 -118 6 -141 2 -6 -2 -14 -2 -20 -1 -14 3 -208 3 -220 1 -5 -1 -12 -2 -15 -1
-17 6 -290 5 -290 -1 0 -4 -6 -5 -14 -2 -22 8 -146 10 -146 2 0 -4 -6 -5 -14
-2 -20 8 -136 10 -136 3 0 -3 -12 -4 -27 -2 -41 6 -152 5 -162 -2 -5 -3 -12
-1 -15 4 -4 6 -18 6 -35 1 -16 -4 -32 -6 -35 -3 -5 5 -209 7 -231 3 -5 -1 -14
-1 -20 0 -5 1 -25 2 -44 3 l-34 2 0 195 c1 107 2 200 2 205 1 7 453 10 1344 9
1472 -1 1397 -3 1457 58 54 55 64 85 63 198 0 95 -6 184 -19 280 -2 19 -7 58
-10 85 -3 28 -8 53 -10 56 -2 4 -6 24 -10 45 -17 117 -96 377 -153 509 -53
121 -173 353 -203 390 -5 6 -28 40 -52 77 -42 63 -94 137 -106 148 -3 3 -25
30 -50 60 -108 133 -283 302 -418 405 -7 6 -21 17 -30 25 -21 18 -201 140
-207 140 -3 0 -33 17 -68 39 -51 31 -208 110 -302 151 -99 44 -377 130 -470
146 -38 6 -54 9 -92 18 -10 2 -43 7 -73 11 -30 4 -64 9 -75 11 -34 7 -203 15
-355 17 -80 1 -149 5 -155 9 -6 4 -10 173 -9 477 l1 471 -2869 0 -2868 0 0
-3825z m6130 2451 c51 -4 96 -9 100 -10 3 -2 28 -6 55 -10 59 -7 103 -15 127
-22 10 -3 30 -7 45 -10 56 -10 257 -73 322 -102 20 -9 39 -17 44 -18 4 -1 9
-2 12 -3 3 0 8 -1 11 0 4 0 10 -3 13 -8 3 -4 54 -32 113 -62 280 -140 528
-343 734 -601 62 -77 189 -265 201 -297 4 -10 9 -20 12 -23 11 -9 89 -174 114
-240 50 -132 100 -294 111 -360 2 -14 9 -45 14 -70 5 -25 10 -52 10 -60 0 -8
4 -36 7 -61 4 -25 7 -54 8 -65 2 -18 -32 -18 -1217 -19 -1136 0 -1219 1 -1225
17 -7 20 -6 596 1 604 3 2 18 7 34 10 71 13 133 69 158 142 13 39 16 306 3
318 -4 4 -7 15 -7 25 0 10 -19 38 -42 62 -44 44 -84 67 -118 67 -11 0 -23 8
-27 18 -6 13 -9 679 -4 772 1 13 24 15 148 14 82 -1 191 -4 243 -8z m-220
-4126 c19 -14 37 -27 40 -31 3 -3 23 -18 45 -34 22 -17 42 -33 45 -36 3 -3 15
-12 28 -18 13 -7 31 -19 40 -28 15 -13 111 -86 193 -146 94 -69 256 -189 265
-196 49 -39 117 -83 136 -87 13 -2 32 -6 43 -8 51 -9 114 22 246 119 74 55
139 103 144 107 23 19 248 186 300 223 31 22 66 48 78 58 12 10 48 37 80 60
l57 42 273 0 272 0 0 -130 c1 -194 -23 -285 -103 -408 -46 -69 -129 -152 -179
-178 -15 -8 -30 -16 -33 -19 -16 -17 -130 -56 -195 -68 -22 -3 -469 -7 -994
-7 l-954 0 0 396 c0 217 2 400 6 405 3 6 34 10 69 9 50 0 70 -6 98 -25z"/>
<path d="M6768 5994 c-2 -1 -16 -4 -33 -6 -62 -8 -116 -51 -150 -118 -15 -29
-18 -60 -17 -180 0 -80 3 -152 5 -160 17 -64 79 -133 130 -145 120 -29 213 12
259 112 15 35 19 67 19 170 1 71 -2 143 -5 162 -8 40 -53 110 -81 125 -11 6
-23 15 -26 19 -3 5 -8 8 -10 7 -2 -1 -11 1 -19 4 -22 6 -69 14 -72 10z"/>
</g>
</svg>
