<svg width="54" height="48" viewBox="0 0 54 48" fill="none" xmlns="http://www.w3.org/2000/svg">
<rect width="35.8575" height="47.8101" fill="#FBB731"/>
<path fill-rule="evenodd" clip-rule="evenodd" d="M34.5769 5.97632H37.1381C46.3282 5.9869 53.7757 13.4343 53.7863 22.6244C53.7863 23.3317 53.2129 23.9051 52.5056 23.9051H19.2094C18.5021 23.9051 17.9287 23.3317 17.9287 22.6244C17.9393 13.4343 25.3868 5.9869 34.5769 5.97632ZM34.5769 8.53751C27.2964 8.54621 21.2186 14.0943 20.5477 21.3438H51.1674C50.4966 14.0942 44.4187 8.54621 37.1382 8.53751H34.5769Z" fill="#443737"/>
<path fill-rule="evenodd" clip-rule="evenodd" d="M47.3831 31.6814H52.5057C53.213 31.6814 53.7863 32.2496 53.7863 32.9505V35.4886C53.7821 38.9912 50.9177 41.8297 47.3831 41.8338H24.3318C20.7972 41.8297 17.9329 38.9912 17.9287 35.4886V32.9505C17.9287 32.2496 18.5021 31.6814 19.2094 31.6814H37.1381C37.4152 31.6814 37.6848 31.7704 37.9064 31.9352L42.2606 35.1713L46.6148 31.9352C46.8364 31.7705 47.106 31.6814 47.3831 31.6814ZM47.3832 39.2957C49.505 39.2957 51.2251 37.5912 51.2251 35.4885V34.2194H47.8097L43.0291 37.7728C42.5737 38.1112 41.9476 38.1112 41.4923 37.7728L36.7117 34.2194H20.49V35.4885C20.49 37.5912 22.2101 39.2957 24.3319 39.2957H47.3832Z" fill="#443737"/>
<path d="M52.5056 26.4971H19.2094C18.5021 26.4971 17.9287 27.0773 17.9287 27.7931C17.9287 28.5088 18.5021 29.0892 19.2094 29.0892H52.5056C53.2129 29.0892 53.7863 28.5089 53.7863 27.7931C53.7863 27.0773 53.2129 26.4971 52.5056 26.4971Z" fill="#443737"/>
<path d="M29.3774 13.5366C28.6616 13.5366 28.0813 14.1169 28.0813 14.8327V16.1287C28.0813 16.8445 28.6616 17.4248 29.3774 17.4248C30.0932 17.4248 30.6734 16.8445 30.6734 16.1287V14.8327C30.6734 14.1169 30.0932 13.5366 29.3774 13.5366Z" fill="#443737"/>
<path d="M35.8576 13.5366C35.1418 13.5366 34.5615 14.1169 34.5615 14.8327V16.1287C34.5615 16.8445 35.1418 17.4248 35.8576 17.4248C36.5734 17.4248 37.1536 16.8445 37.1536 16.1287V14.8326C37.1536 14.1169 36.5734 13.5366 35.8576 13.5366Z" fill="#443737"/>
<path d="M42.3378 13.5366C41.622 13.5366 41.0417 14.1169 41.0417 14.8327V16.1287C41.0417 16.8445 41.622 17.4248 42.3378 17.4248C43.0536 17.4248 43.6339 16.8445 43.6339 16.1287V14.8327C43.6338 14.1169 43.0535 13.5366 42.3378 13.5366Z" fill="#443737"/>
</svg>
